<svg xmlns="http://www.w3.org/2000/svg" width="18" height="14.207" viewBox="0 0 18 14.207"><defs><style>.a{fill:#cacaca;}</style></defs><path class="a" d="M8.96,10.655l1.17-1.17L8.6,7.951l-1.17,1.17v.565h.969v.969H8.96ZM13.4,3.39a.209.209,0,0,0-.333.01L9.535,6.931a.229.229,0,1,0,.323.323l3.531-3.531a.208.208,0,0,0,.01-.333Zm.807,5.993V11.3A2.912,2.912,0,0,1,11.3,14.207H2.906a2.8,2.8,0,0,1-2.053-.853A2.8,2.8,0,0,1,0,11.3V2.906A2.8,2.8,0,0,1,.853.853,2.8,2.8,0,0,1,2.906,0H11.3a2.774,2.774,0,0,1,1.18.252.307.307,0,0,1,.182.232.315.315,0,0,1-.091.293l-.494.494a.3.3,0,0,1-.323.081,1.788,1.788,0,0,0-.454-.061H2.906a1.554,1.554,0,0,0-1.14.474,1.554,1.554,0,0,0-.474,1.14V11.3a1.554,1.554,0,0,0,.474,1.14,1.554,1.554,0,0,0,1.14.474H11.3A1.619,1.619,0,0,0,12.915,11.3V10.029a.3.3,0,0,1,.091-.222l.646-.646A.3.3,0,0,1,14,9.091a.292.292,0,0,1,.2.293Zm-.969-7.446,2.906,2.906-6.78,6.78H6.457V8.717Zm4.48,1.332-.928.928L13.883,1.291l.928-.928a.974.974,0,0,1,1.372,0L17.717,1.9A.934.934,0,0,1,18,2.583a.934.934,0,0,1-.283.686Z"/></svg>