<svg id="Layer_1" data-name="Layer 1" xmlns="http://www.w3.org/2000/svg" xmlns:xlink="http://www.w3.org/1999/xlink" viewBox="0 0 318.43 214.23"><defs><style>.cls-1{fill:url(#radial-gradient);}</style><radialGradient id="radial-gradient" cx="297.46" cy="-92.29" r="88.03" gradientTransform="matrix(1.04, 0, 0, -1, -106.16, 73.07)" gradientUnits="userSpaceOnUse"><stop offset="0.69" stop-color="#ffc902"/><stop offset="0.76" stop-color="#ffc402"/><stop offset="0.85" stop-color="#ffb603"/><stop offset="0.93" stop-color="#ff9f03"/><stop offset="1" stop-color="#ff8904"/></radialGradient></defs><path d="M50.49,62.52A16.82,16.82,0,0,1,46,61.9a34.59,34.59,0,0,1-4.09-1.4,22.14,22.14,0,0,1-3.83-2L37.24,58l-7,9.53.73.58a24.84,24.84,0,0,0,5,3,36.66,36.66,0,0,0,6.12,2.05,35.7,35.7,0,0,0,8.68.95,26,26,0,0,0,8.31-1.21A17.36,17.36,0,0,0,65,69.56a13.54,13.54,0,0,0,3.52-4.91,15.41,15.41,0,0,0,1.15-5.92,11,11,0,0,0-4.55-9.29c-2.87-2.14-7-3.92-12.39-5.29A31.73,31.73,0,0,1,47,42.27c-1.07-.52-1.2-1.16-1.2-1.66a1.82,1.82,0,0,1,.78-1.52c.33-.25,1.24-.68,3.72-.68a17,17,0,0,1,4.37.54,29.38,29.38,0,0,1,3.54,1.18,15.67,15.67,0,0,1,3.08,1.7l.85.6L69,32.35l-.67-.56A16.18,16.18,0,0,0,64,29.32a35,35,0,0,0-5.58-1.64,38.65,38.65,0,0,0-8.17-.75,29.82,29.82,0,0,0-8.2,1,16.77,16.77,0,0,0-6,3,12.35,12.35,0,0,0-3.59,4.63,14.23,14.23,0,0,0-1.16,5.79,11.23,11.23,0,0,0,1.15,5.16,12.26,12.26,0,0,0,3.22,4,20.25,20.25,0,0,0,5,2.93,56.83,56.83,0,0,0,6.71,2.25,41.23,41.23,0,0,1,4.06,1.23A13.87,13.87,0,0,1,53.82,58a2.4,2.4,0,0,1,.91.85A2.26,2.26,0,0,1,55,60a2.34,2.34,0,0,1-.9,1.81C53.77,62.07,52.77,62.52,50.49,62.52Z"/><polygon points="88.07 73.12 100.4 73.12 100.4 38.83 113.88 38.83 113.88 27.86 74.51 27.86 74.51 38.83 88.07 38.83 88.07 73.12"/><path d="M125.45,68.18a19.3,19.3,0,0,0,6.61,4.33,22.93,22.93,0,0,0,8.59,1.55,23.53,23.53,0,0,0,8.7-1.55,18.64,18.64,0,0,0,6.59-4.34,19.25,19.25,0,0,0,4.1-6.58,22.61,22.61,0,0,0,1.44-8.14V27.86H149.07V53.45a11.27,11.27,0,0,1-.5,3.32,7.3,7.3,0,0,1-1.49,2.68,7.73,7.73,0,0,1-2.6,1.85,9.48,9.48,0,0,1-3.83.71,9.1,9.1,0,0,1-3.75-.71,7.91,7.91,0,0,1-2.64-1.86,7.45,7.45,0,0,1-1.57-2.69,10.26,10.26,0,0,1-.52-3.3V27.86h-12.4V53.45a22.48,22.48,0,0,0,1.47,8.15A19.2,19.2,0,0,0,125.45,68.18Z"/><path d="M208.22,41.55a21.12,21.12,0,0,0-4.35-7.23,19.65,19.65,0,0,0-6.93-4.77,23.9,23.9,0,0,0-9.19-1.69H170.37V73.12h17.4A23.9,23.9,0,0,0,197,71.43a19.62,19.62,0,0,0,6.93-4.76,21.36,21.36,0,0,0,4.35-7.19,27.94,27.94,0,0,0,0-17.93Zm-26.45-2.72H187a13.43,13.43,0,0,1,4.49.74,9.28,9.28,0,0,1,3.41,2.17,10.42,10.42,0,0,1,2.24,3.63,14.62,14.62,0,0,1,.83,5.12,14.34,14.34,0,0,1-.83,5.15,10.3,10.3,0,0,1-2.24,3.6,9.08,9.08,0,0,1-3.41,2.17,13,13,0,0,1-4.49.75h-5.27Z"/><rect x="218.74" y="27.86" width="12.41" height="45.26"/><path d="M246.69,67.12a22.47,22.47,0,0,0,7.59,5.1,26.13,26.13,0,0,0,10,1.84,26.73,26.73,0,0,0,10.12-1.84,22,22,0,0,0,12.45-12.6,26,26,0,0,0,0-18.21A21.86,21.86,0,0,0,274.4,28.76a26.73,26.73,0,0,0-10.12-1.84,26,26,0,0,0-10,1.85,22.3,22.3,0,0,0-7.59,5.09,22.67,22.67,0,0,0-4.79,7.55,26,26,0,0,0,0,18.21A22.56,22.56,0,0,0,246.69,67.12ZM264.32,39a12,12,0,0,1,4.52.84,11.18,11.18,0,0,1,3.65,2.32,10.32,10.32,0,0,1,2.41,3.6,13.46,13.46,0,0,1,0,9.52,10.3,10.3,0,0,1-2.4,3.6,11.19,11.19,0,0,1-3.66,2.33,12.24,12.24,0,0,1-4.52.83,12,12,0,0,1-4.47-.83,10.88,10.88,0,0,1-3.58-2.32,10.52,10.52,0,0,1-2.38-3.61,13.46,13.46,0,0,1,0-9.52,10.33,10.33,0,0,1,2.38-3.6,10.88,10.88,0,0,1,3.58-2.32,11.79,11.79,0,0,1,4.47-.84Z"/><path d="M71.43,109.07a26,26,0,0,0-1.54-9,22.24,22.24,0,0,0-4.48-7.45,20.78,20.78,0,0,0-7.15-5,23.73,23.73,0,0,0-9.45-1.81,23.24,23.24,0,0,0-9.38,1.82,20.88,20.88,0,0,0-7.08,5,22.19,22.19,0,0,0-4.48,7.44,27,27,0,0,0,0,18,22.49,22.49,0,0,0,4.48,7.41,20.65,20.65,0,0,0,7.08,5,23.24,23.24,0,0,0,9.38,1.82,23.92,23.92,0,0,0,9.45-1.82,20.65,20.65,0,0,0,7.15-5,22.39,22.39,0,0,0,4.48-7.41A26,26,0,0,0,71.43,109.07ZM48.77,120.39a10.66,10.66,0,0,1-4.17-.82,10.11,10.11,0,0,1-3.34-2.29A10.43,10.43,0,0,1,39,113.73a14,14,0,0,1,0-9.38,10.43,10.43,0,0,1,2.22-3.55,10.18,10.18,0,0,1,3.34-2.28,10.48,10.48,0,0,1,4.17-.82,10.85,10.85,0,0,1,4.21.82,10.12,10.12,0,0,1,5.66,5.83,14,14,0,0,1,0,9.38,10.17,10.17,0,0,1-2.25,3.55A10.5,10.5,0,0,1,53,119.57,10.85,10.85,0,0,1,48.77,120.39Z"/><polygon points="114.13 86.78 102.96 86.78 102.96 108.27 78.87 86.71 75.51 86.71 75.51 131.37 86.68 131.37 86.68 108.94 110.76 131.37 114.13 131.37 114.13 86.78"/><path d="M63.6,166c-2.74-2.07-6.73-3.8-11.85-5.13A31.55,31.55,0,0,1,46.23,159c-1-.51-1.13-1.11-1.13-1.58a1.74,1.74,0,0,1,.73-1.45c.31-.25,1.18-.66,3.54-.66a15.84,15.84,0,0,1,4.17.52A28.61,28.61,0,0,1,56.92,157a15.67,15.67,0,0,1,2.94,1.64l.83.6,6.59-9.81-.66-.56a15.93,15.93,0,0,0-4.1-2.4,34.1,34.1,0,0,0-5.34-1.58,36.59,36.59,0,0,0-7.81-.73,28.14,28.14,0,0,0-7.85,1,16,16,0,0,0-5.75,2.89,11.92,11.92,0,0,0-3.43,4.49,14.09,14.09,0,0,0-1.11,5.62,11.22,11.22,0,0,0,1.09,5A11.86,11.86,0,0,0,35.41,167a19.27,19.27,0,0,0,4.83,2.85,53.89,53.89,0,0,0,6.42,2.18,35.25,35.25,0,0,1,3.87,1.19,12.76,12.76,0,0,1,2.28,1.06,2.28,2.28,0,0,1,.85.81,2.15,2.15,0,0,1,.22,1,2.24,2.24,0,0,1-.85,1.73c-.41.36-1.34.79-3.49.79a16.06,16.06,0,0,1-4.31-.59,31.58,31.58,0,0,1-3.9-1.36,20.31,20.31,0,0,1-3.66-1.93l-.8-.54-6.7,9.28.71.57A23.64,23.64,0,0,0,35.7,187a34.5,34.5,0,0,0,5.85,2,33.87,33.87,0,0,0,8.27.9,24.39,24.39,0,0,0,8-1.17,16.37,16.37,0,0,0,5.67-3.21,13,13,0,0,0,3.37-4.76A15,15,0,0,0,68,175,10.77,10.77,0,0,0,63.6,166Z"/><path d="M102.4,169.9a10.87,10.87,0,0,1-.46,3.2,6.89,6.89,0,0,1-1.39,2.58,6.76,6.76,0,0,1-2.41,1.79,8.48,8.48,0,0,1-3.55.68,8.21,8.21,0,0,1-3.49-.68,7.38,7.38,0,0,1-2.45-1.8,7,7,0,0,1-1.45-2.58,10.17,10.17,0,0,1-.49-3.19V145.07H75.08v24.81a22.39,22.39,0,0,0,1.38,7.9,18.61,18.61,0,0,0,3.94,6.37,18,18,0,0,0,6.17,4.21,20.86,20.86,0,0,0,8,1.5,21.08,21.08,0,0,0,8.12-1.5,17.36,17.36,0,0,0,6.15-4.21,18.81,18.81,0,0,0,3.83-6.38,22.8,22.8,0,0,0,1.34-7.89V145.07H102.4Z"/><polygon points="149.66 166.24 124.48 145.09 120.94 145.09 120.94 188.97 132.66 188.97 132.66 166.97 157.82 188.97 161.37 188.97 161.37 145.16 149.66 145.16 149.66 166.24"/><path d="M200.37,166c-2.75-2.07-6.74-3.8-11.87-5.13A31.55,31.55,0,0,1,183,159c-1-.51-1.13-1.11-1.13-1.58a1.74,1.74,0,0,1,.73-1.45c.31-.25,1.18-.66,3.54-.66a15.91,15.91,0,0,1,4.18.52,28.61,28.61,0,0,1,3.38,1.15,15.75,15.75,0,0,1,2.95,1.64l.83.6,6.6-9.81-.66-.56a15.93,15.93,0,0,0-4.1-2.4,34.54,34.54,0,0,0-5.35-1.58,36.77,36.77,0,0,0-7.83-.73,28.14,28.14,0,0,0-7.85,1,16,16,0,0,0-5.72,2.87,11.94,11.94,0,0,0-3.44,4.49,14.09,14.09,0,0,0-1.11,5.62,11.22,11.22,0,0,0,1.09,5,11.89,11.89,0,0,0,3.1,3.84,19.27,19.27,0,0,0,4.83,2.85,54,54,0,0,0,6.43,2.18,35.42,35.42,0,0,1,3.88,1.19,12.67,12.67,0,0,1,2.27,1.06,2.23,2.23,0,0,1,.86.81,2.15,2.15,0,0,1,.22,1,2.24,2.24,0,0,1-.85,1.73c-.41.36-1.34.79-3.5.79A16.06,16.06,0,0,1,182,178a31.72,31.72,0,0,1-3.91-1.36,20.31,20.31,0,0,1-3.66-1.93l-.8-.54-6.72,9.28.72.57a24,24,0,0,0,4.83,2.92,34.5,34.5,0,0,0,5.85,2,34,34,0,0,0,8.29.9,24.66,24.66,0,0,0,8-1.17,16.37,16.37,0,0,0,5.67-3.21,13,13,0,0,0,3.38-4.76,15,15,0,0,0,1.1-5.74A10.74,10.74,0,0,0,200.37,166Z"/><polygon points="209.85 188.97 243.78 188.97 243.78 178.29 221.46 178.29 221.46 171.99 239.21 171.99 239.21 162.08 221.46 162.08 221.46 155.77 243.78 155.77 243.78 145.09 209.85 145.09 209.85 188.97"/><polygon points="248.82 145.09 248.82 155.77 262.04 155.77 262.04 188.97 274.11 188.97 274.11 155.77 287.25 155.77 287.25 145.09 248.82 145.09"/><path d="M318.43,214.23H0V0H318.43Zm-307.26-11h296.1V11H11.17Z"/><path class="cls-1" d="M139.62,131.71a80.31,80.31,0,0,1,129.81,0h17.34c-15.75-28.1-46.71-47.25-82.24-47.25S138,103.61,122.28,131.71Z"/></svg>