<?xml version="1.0" encoding="UTF-8"?>
<svg xmlns="http://www.w3.org/2000/svg" xmlns:xlink="http://www.w3.org/1999/xlink" viewBox="0 0 250 250" width="250px" height="250px">
<g id="surface2347622">
<path style="fill-rule:nonzero;fill:rgb(0%,0%,0%);fill-opacity:1;stroke-width:10;stroke-linecap:butt;stroke-linejoin:round;stroke:rgb(100%,84.705883%,23.137255%);stroke-opacity:1;stroke-miterlimit:10;" d="M 150.60807 33.177117 C 151.884988 35.460781 151.7627 38.256349 150.283864 40.420569 L 81.162501 145.983864 C 80.087501 147.639022 78.352712 148.753837 76.393255 149.049604 C 74.442329 149.331152 72.454432 148.765213 70.950001 147.491139 L 23.004431 105.99557 C 20.908466 104.44848 19.873281 101.869048 20.302712 99.303837 C 20.734987 96.750001 22.575 94.654035 25.046363 93.889022 C 27.534789 93.109789 30.233664 93.806548 32.033863 95.675001 L 73.958863 131.903639 L 138.675001 32.895569 C 139.883665 30.958863 141.979631 29.750199 144.266139 29.670569 C 146.871165 29.548281 149.331152 30.907672 150.60807 33.177117 Z M 150.60807 33.177117 " transform="matrix(1.373547,0,0,1.373547,6.875,6.875)"/>
<path style=" stroke:none;fill-rule:nonzero;fill:rgb(100%,84.705883%,23.137255%);fill-opacity:1;" d="M 205.03125 47.628906 C 201.890625 47.738281 199.011719 49.398438 197.351562 52.058594 L 108.460938 188.050781 L 50.875 138.289062 C 48.402344 135.722656 44.695312 134.765625 41.277344 135.835938 C 37.882812 136.886719 35.355469 139.765625 34.761719 143.273438 C 34.171875 146.796875 35.59375 150.339844 38.472656 152.464844 L 104.328125 209.460938 C 106.394531 211.210938 109.125 211.988281 111.804688 211.601562 C 114.496094 211.195312 116.878906 209.664062 118.355469 207.390625 L 213.296875 62.394531 C 215.328125 59.421875 215.496094 55.582031 213.742188 52.445312 C 211.988281 49.324219 208.609375 47.460938 205.03125 47.628906 Z M 205.03125 47.628906 "/>
</g>
</svg>
