<svg xmlns="http://www.w3.org/2000/svg" width="14.368" height="15.965" viewBox="0 0 14.368 15.965"><defs><style>.a{fill:#b0b9d3;fill-rule:evenodd;}</style></defs><path class="a" d="M8.491,4.6h6.386V3h1.6V4.6h.8a1.6,1.6,0,0,1,1.6,1.6V17.368a1.6,1.6,0,0,1-1.6,1.6H6.1a1.6,1.6,0,0,1-1.6-1.6V6.193A1.6,1.6,0,0,1,6.1,4.6h.8V3h1.6ZM6.1,7.789v9.579H17.272V7.789Zm1.6,2.395h1.6v1.6h-1.6Zm3.193,0h1.6v1.6h-1.6Zm3.193,0h1.6v1.6h-1.6Zm0,3.193h1.6v1.6h-1.6Zm-3.193,0h1.6v1.6h-1.6Zm-3.193,0h1.6v1.6h-1.6Z" transform="translate(-4.5 -3)"/></svg>