<?xml version="1.0" encoding="utf-8"?>
<!-- Generator: Adobe Illustrator 23.0.1, SVG Export Plug-In . SVG Version: 6.00 Build 0)  -->
<svg version="1.1" id="Layer_1" xmlns="http://www.w3.org/2000/svg" xmlns:xlink="http://www.w3.org/1999/xlink" x="0px" y="0px"
	 viewBox="0 0 14.4 16" style="enable-background:new 0 0 14.4 16;" xml:space="preserve">
<style type="text/css">
	.st0{fill-rule:evenodd;clip-rule:evenodd;fill:#FFDC4E;}
</style>
<path class="st0" d="M4,1.6h6.4V0H12v1.6h0.8c0.9,0,1.6,0.7,1.6,1.6l0,0v11.2c0,0.9-0.7,1.6-1.6,1.6l0,0H1.6C0.7,16,0,15.3,0,14.4
	l0,0V3.2c0-0.9,0.7-1.6,1.6-1.6h0.8V0H4L4,1.6z M1.6,4.8v9.6h11.2V4.8H1.6z M3.2,7.2h1.6v1.6H3.2L3.2,7.2z M6.4,7.2H8v1.6H6.4V7.2z
	 M9.6,7.2h1.6v1.6H9.6V7.2z M9.6,10.4h1.6V12H9.6V10.4z M6.4,10.4H8V12H6.4V10.4z M3.2,10.4h1.6V12H3.2L3.2,10.4z"/>
</svg>
