<svg xmlns="http://www.w3.org/2000/svg" width="40" height="40" viewBox="0 0 40 40"><g transform="translate(-679 -701)"><circle cx="20" cy="20" r="20" transform="translate(679 701)" fill="#ffd83b"/><path d="M25.736,21.681h2.358a2.28,2.28,0,0,1,2.429-2.472A2.074,2.074,0,0,1,32.868,21.3c0,1.134-.668,1.656-1.723,2.449a4.069,4.069,0,0,0-2.086,3.549l.013.827h2.334v-.634c0-1.282.487-1.656,1.8-2.654,1.087-.827,2.222-1.745,2.222-3.672,0-2.7-2.279-4-4.774-4-2.369,0-4.976,1.156-4.919,4.524Zm2.789,9.852a1.826,1.826,0,1,0,1.8-1.679,1.682,1.682,0,0,0-1.8,1.679Z" transform="translate(668.266 695.84)"/></g></svg>