<svg xmlns="http://www.w3.org/2000/svg" width="40" height="40" viewBox="0 0 40 40"><g transform="translate(-679 -758)"><g transform="translate(679 758)" fill="none" stroke="#3e495a" stroke-width="2"><circle cx="20" cy="20" r="20" stroke="none"/><circle cx="20" cy="20" r="19" fill="none"/></g><path d="M21.911,35.377a.928.928,0,0,1-.667-.3L14.99,28.6a1.523,1.523,0,0,1-.135-1.827.911.911,0,0,1,1.47-.168l5.587,5.8,5.587-5.6a.908.908,0,0,1,.767-.283,1.008,1.008,0,0,1,.7.477,1.508,1.508,0,0,1,.259.985,1.4,1.4,0,0,1-.4.906l-6.254,6.257a.9.9,0,0,1-.655.23Z" transform="translate(677.387 747.694)" fill="#fff"/></g></svg>