<svg id="Component_78_3" data-name="Component 78 – 3" xmlns="http://www.w3.org/2000/svg" width="20" height="20" viewBox="0 0 20 20">
  <g id="info">
    <path id="Path_1017" data-name="Path 1017" d="M16.5,15.82a.85.85,0,1,1,1.7,0v5.1a.85.85,0,1,1-1.7,0Z" transform="translate(-7.35 -6.194)" fill="#b0b9d3"/>
    <path id="Path_1018" data-name="Path 1018" d="M17.35,9.076a.85.85,0,1,0,.85.85A.85.85,0,0,0,17.35,9.076Z" transform="translate(-7.35 -4.958)" fill="#b0b9d3"/>
    <path id="Path_1019" data-name="Path 1019" d="M13,3A10,10,0,1,0,23,13,10,10,0,0,0,13,3ZM5,13a8,8,0,1,0,8-8A8,8,0,0,0,5,13Z" transform="translate(-3 -3)" fill="#b0b9d3" fill-rule="evenodd"/>
  </g>
</svg>
