<svg xmlns="http://www.w3.org/2000/svg" width="55" height="55" viewBox="0 0 55 55"><defs><style>.a{fill:#fff;}.b{fill:#131519;font-size:13px;font-family:inherit;font-weight:600;}.c{fill:#f46565;fill-rule:evenodd;}</style></defs><rect class="a" width="55" height="55" rx="11"/><text class="b" transform="translate(28 46.76)"></text><g transform="translate(14 5.239)"><path class="c" d="M20.9,17.2a3.7,3.7,0,1,1-3.7-3.7A3.7,3.7,0,0,1,20.9,17.2Zm-2.467,0A1.234,1.234,0,1,1,17.2,15.967,1.234,1.234,0,0,1,18.435,17.2Z" transform="translate(-3.63 -3.63)"/><path class="c" d="M16.136,24.772A8.636,8.636,0,1,0,7.5,16.136a8.636,8.636,0,0,0,8.636,8.636Zm0-2.467a6.169,6.169,0,1,0-6.169-6.169A6.169,6.169,0,0,0,16.136,22.3Z" transform="translate(-2.565 -2.565)"/><path class="c" d="M15.071,28.642A13.571,13.571,0,1,0,1.5,15.071,13.571,13.571,0,0,0,15.071,28.642Zm0-2.467a11.1,11.1,0,1,0-11.1-11.1A11.1,11.1,0,0,0,15.071,26.175Z" transform="translate(-1.5 -1.5)"/></g></svg>