<svg xmlns="http://www.w3.org/2000/svg" width="16" height="16" viewBox="0 0 16 16"><path d="M9.669,4.237l3,3L7.238,12.669l-3-3Zm-2,9.3,5.868-5.868a.6.6,0,0,0,0-.855L10.1,3.373a.62.62,0,0,0-.855,0L3.373,9.241a.6.6,0,0,0,0,.855L6.81,13.533a.62.62,0,0,0,.855,0ZM16.11,7.488,7.494,16.107a1.226,1.226,0,0,1-1.718,0l-1.2-1.2a1.833,1.833,0,0,0,0-2.582A1.758,1.758,0,0,0,3.288,11.8,1.758,1.758,0,0,0,2,12.328l-1.188-1.2a1.226,1.226,0,0,1,0-1.719l8.61-8.6a1.226,1.226,0,0,1,1.718,0L12.327,2A1.758,1.758,0,0,0,11.8,3.291a1.758,1.758,0,0,0,.532,1.291,1.833,1.833,0,0,0,2.582,0l1.2,1.187a1.226,1.226,0,0,1,0,1.718Z" transform="translate(-0.46 -0.458)" fill="#ffd83b"/></svg>