<svg xmlns="http://www.w3.org/2000/svg" width="16" height="15.997" viewBox="0 0 16 15.997"><path d="M13.6,11.956a5.725,5.725,0,0,0-.781-2.3A2.225,2.225,0,0,0,11.17,8.6a4.282,4.282,0,0,1-6.34,0A2.222,2.222,0,0,0,3.183,9.656a5.737,5.737,0,0,0-.781,2.3,6.844,6.844,0,0,0,2.42,2.12A6.682,6.682,0,0,0,8,14.857a6.682,6.682,0,0,0,3.179-.781,6.844,6.844,0,0,0,2.42-2.12ZM11.43,5.715a3.3,3.3,0,0,0-1-2.424A3.3,3.3,0,0,0,8,2.286a3.3,3.3,0,0,0-2.424,1,3.3,3.3,0,0,0-1,2.424,3.3,3.3,0,0,0,1,2.424A3.3,3.3,0,0,0,8,9.143a3.3,3.3,0,0,0,2.424-1,3.3,3.3,0,0,0,1-2.424ZM16,8a7.791,7.791,0,0,1-.634,3.1,8.14,8.14,0,0,1-1.7,2.554,8.024,8.024,0,0,1-8.772,1.709,7.859,7.859,0,0,1-4.26-4.256,7.933,7.933,0,0,1,0-6.214A7.859,7.859,0,0,1,4.893.634a7.933,7.933,0,0,1,6.214,0,7.859,7.859,0,0,1,4.259,4.259A7.822,7.822,0,0,1,16,8Z" transform="translate(0 0)" fill="#ffd83b"/></svg>