<svg xmlns="http://www.w3.org/2000/svg" width="20.048" height="15.957" viewBox="0 0 20.048 15.957"><path d="M17.746,9.816v5.968a.807.807,0,0,1-.8.8H12.175V11.805H8.992V16.58H4.218a.807.807,0,0,1-.8-.8V9.816a.166.166,0,0,1,.006-.037.166.166,0,0,0,.006-.037l7.15-5.894,7.15,5.894a.17.17,0,0,1,.013.075Zm2.773-.858-.771.92a.422.422,0,0,1-.261.137H19.45a.382.382,0,0,1-.261-.087L10.584,2.753,1.98,9.928a.461.461,0,0,1-.3.087.422.422,0,0,1-.261-.137L.65,8.958a.4.4,0,0,1-.087-.292A.363.363,0,0,1,.7,8.4L9.639.951a1.541,1.541,0,0,1,1.89,0l3.034,2.536V1.063a.384.384,0,0,1,.4-.4H17.35a.384.384,0,0,1,.4.4V6.136L20.47,8.4a.362.362,0,0,1,.137.267.4.4,0,0,1-.087.292Z" transform="translate(-0.561 -0.627)" fill="#ffd83b"/></svg>