<svg xmlns="http://www.w3.org/2000/svg" width="27.023" height="31.5" viewBox="0 0 27.023 31.5"><g transform="translate(-4.488 -2.25)"><path d="M30.943,24l-.344-.417c-1.547-1.871-2.483-3-2.483-8.3A10.744,10.744,0,0,0,26.167,8.6a9.167,9.167,0,0,0-3.941-2.891.211.211,0,0,1-.058-.047A4.491,4.491,0,0,0,18,2.25a4.492,4.492,0,0,0-4.168,3.414.22.22,0,0,1-.057.046c-3.964,1.632-5.891,4.763-5.891,9.572,0,5.3-.934,6.428-2.483,8.3-.113.136-.227.274-.344.417a2.472,2.472,0,0,0-.327,2.645,2.628,2.628,0,0,0,2.414,1.481H28.863a2.624,2.624,0,0,0,2.4-1.477A2.473,2.473,0,0,0,30.943,24Z" fill="#ffd83b"/><path d="M18,33.75a5.629,5.629,0,0,0,4.953-2.962.281.281,0,0,0-.249-.413H13.3a.281.281,0,0,0-.25.413A5.629,5.629,0,0,0,18,33.75Z" fill="#ffd83b"/></g></svg>