<svg xmlns="http://www.w3.org/2000/svg" width="16.3" height="18.718" viewBox="0 0 16.3 18.718"><g transform="translate(-9 -58)"><g transform="translate(3.512 43.75)"><path d="M20.445,14.481l-.207-.235c-.933-1.052-1.5-1.687-1.5-4.666a5.757,5.757,0,0,0-1.176-3.757A5.52,5.52,0,0,0,15.187,4.2a.126.126,0,0,1-.035-.026,2.606,2.606,0,0,0-5.028,0,.131.131,0,0,1-.034.026A5.211,5.211,0,0,0,6.536,9.579c0,2.98-.563,3.615-1.5,4.666l-.207.235a1.315,1.315,0,0,0-.2,1.488A1.6,1.6,0,0,0,6.09,16.8h13.1a1.6,1.6,0,0,0,1.45-.831,1.316,1.316,0,0,0-.2-1.489Z" transform="translate(1 12)" fill="#ffd83b"/><path d="M16.959,33.045A4.454,4.454,0,0,0,20.878,30.7a.222.222,0,0,0-.2-.327H13.238a.222.222,0,0,0-.2.327A4.454,4.454,0,0,0,16.959,33.045Z" transform="translate(-3.526 -0.077)" fill="#ffd83b"/></g></g></svg>