<svg xmlns="http://www.w3.org/2000/svg" xmlns:xlink="http://www.w3.org/1999/xlink" width="28" height="28" viewBox="0 0 28 28"><defs><style>.a{fill:#f15656;}.b{clip-path:url(#a);}</style><clipPath id="a"><rect class="a" width="28" height="28" transform="translate(66 16)"/></clipPath></defs><g class="b" transform="translate(-66 -16)"><path class="a" d="M28,16.023a.662.662,0,0,1-.233.492,1.848,1.848,0,0,1-.711.369q-.478.151-.985.26a10.869,10.869,0,0,1-1.285.178q-.779.069-1.367.1t-1.49.054q-.9.028-1.38.027h-4.8V14h-.027a5.088,5.088,0,0,0-.492-2.188,11.08,11.08,0,0,1,1.394-.274V10.69Q14,9.1,14,4.127a3.544,3.544,0,0,1,1.463-3.09A6.385,6.385,0,0,1,19.249,0a6.408,6.408,0,0,1,3.787,1.039A3.541,3.541,0,0,1,24.5,4.129q0,5.168-2.625,6.644v.765A10.219,10.219,0,0,1,26.3,13.07,3.531,3.531,0,0,1,28,16.023Zm-16.624,5.25v.765A10.107,10.107,0,0,1,15.8,23.582a3.543,3.543,0,0,1,1.7,2.94.662.662,0,0,1-.233.492,1.848,1.848,0,0,1-.711.369q-.478.151-.985.26a10.869,10.869,0,0,1-1.285.178q-.779.069-1.367.11t-1.49.054q-.9.014-1.38.014h-2.6l-1.38-.014-1.49-.054-1.367-.11-1.285-.178-.985-.26-.711-.369L0,26.522a3.54,3.54,0,0,1,1.7-2.939,10.118,10.118,0,0,1,4.429-1.545V21.19Q3.5,19.6,3.5,14.628a3.544,3.544,0,0,1,1.463-3.09A6.389,6.389,0,0,1,8.75,10.5a6.4,6.4,0,0,1,3.787,1.039A3.542,3.542,0,0,1,14,14.628q0,5.168-2.625,6.644Z" transform="translate(66.001 16)"/></g></svg>