<svg xmlns="http://www.w3.org/2000/svg" xmlns:xlink="http://www.w3.org/1999/xlink" width="28" height="28" viewBox="0 0 28 28"><defs><style>.a{fill:#f15656;}.b{clip-path:url(#a);}</style><clipPath id="a"><rect class="a" width="28" height="28" transform="translate(65 16)"/></clipPath></defs><g class="b" transform="translate(-65 -16)"><g transform="translate(62.917 13.34)"><path class="a" d="M13.536,27.072a2.082,2.082,0,1,1-2.082-2.082A2.082,2.082,0,0,1,13.536,27.072Z"/><path class="a" d="M28.114,27.072a2.082,2.082,0,1,1-2.082-2.082A2.082,2.082,0,0,1,28.114,27.072Z"/><path class="a" d="M29.728,7.86a1.557,1.557,0,0,0-1.208-.571H8.713l-.4-2.263a1.041,1.041,0,0,0-1.026-.861H3.124a1.041,1.041,0,1,0,0,2.082H6.415l2.971,16.84a1.041,1.041,0,0,0,1.026.861h16.66a1.041,1.041,0,0,0,0-2.082H11.286l-.367-2.082H26.646a1.566,1.566,0,0,0,1.533-1.255l1.874-9.371a1.562,1.562,0,0,0-.326-1.3Z"/></g></g></svg>