<svg xmlns="http://www.w3.org/2000/svg" width="15.5" height="15.5" viewBox="0 0 15.5 15.5"><defs><style>.a{fill:#fff;}</style></defs><g transform="translate(-2 -2)"><path class="a" d="M15.506,14.6l2.354-2.354a.484.484,0,0,0-.683-.683l-2.354,2.33-2.369-2.369a.484.484,0,0,0-.683.683L14.135,14.6,11.82,16.888a.484.484,0,1,0,.683.683l2.31-2.31,2.3,2.3a.484.484,0,0,0,.683-.683Z" transform="translate(-4.976 -4.852)"/><path class="a" d="M9.75,17.5A7.75,7.75,0,1,1,17.5,9.75,7.75,7.75,0,0,1,9.75,17.5Zm0-14.531A6.781,6.781,0,1,0,16.531,9.75,6.781,6.781,0,0,0,9.75,2.969Z"/></g></svg>