<?xml version="1.0" encoding="utf-8"?>
<!-- Generator: Adobe Illustrator 23.0.1, SVG Export Plug-In . SVG Version: 6.00 Build 0)  -->
<svg version="1.1" id="Layer_1" xmlns="http://www.w3.org/2000/svg" xmlns:xlink="http://www.w3.org/1999/xlink" x="0px" y="0px"
	 viewBox="0 0 15.7 15.7" style="enable-background:new 0 0 15.7 15.7;" xml:space="preserve">
<style type="text/css">
	.st0{fill:#FFDC4E;}
</style>
<path class="st0" d="M7.9,0c2.1,0,4.1,0.8,5.6,2.3c1.5,1.4,2.3,3.5,2.3,5.5c0,2.1-0.8,4.1-2.3,5.5c-1.5,1.5-3.5,2.3-5.6,2.3
	c-2.1,0-4.1-0.8-5.6-2.3C0.8,11.9,0,9.9,0,7.8c0-2.1,0.8-4.1,2.3-5.5C3.8,0.8,5.8,0,7.9,0z M7.9,14.1c1.7,0,3.3-0.6,4.4-1.8
	c1.2-1.2,1.9-2.8,1.8-4.5c0-1.7-0.6-3.3-1.8-4.5c-1.2-1.2-2.8-1.9-4.4-1.8c-1.7,0-3.3,0.6-4.4,1.8C2.2,4.6,1.6,6.2,1.6,7.8
	c0,1.7,0.6,3.3,1.8,4.5C4.6,13.5,6.2,14.2,7.9,14.1z M8.2,3.9V8l3.5,2.1l-0.6,1L7.1,8.6V3.9H8.2z"/>
</svg>
