<svg xmlns="http://www.w3.org/2000/svg" xmlns:xlink="http://www.w3.org/1999/xlink" width="28" height="28" viewBox="0 0 28 28"><defs><style>.a,.c{fill:#f15656;}.b{clip-path:url(#a);}.c{fill-rule:evenodd;}</style><clipPath id="a"><rect class="a" width="28" height="28" transform="translate(65 16)"/></clipPath></defs><g class="b" transform="translate(-65 -16)"><g transform="translate(63.728 14.727)"><path class="c" d="M19.091,15.273a3.818,3.818,0,1,1-3.818-3.818A3.818,3.818,0,0,1,19.091,15.273Zm-2.545,0A1.273,1.273,0,1,1,15.273,14,1.273,1.273,0,0,1,16.545,15.273Z"/><path class="c" d="M15.273,24.182a8.909,8.909,0,1,0-8.909-8.909,8.909,8.909,0,0,0,8.909,8.909Zm0-2.545a6.364,6.364,0,1,0-6.364-6.364A6.364,6.364,0,0,0,15.273,21.636Z"/><path class="c" d="M15.273,29.273a14,14,0,1,0-14-14A14,14,0,0,0,15.273,29.273Zm0-2.545A11.455,11.455,0,1,0,3.818,15.273,11.455,11.455,0,0,0,15.273,26.727Z"/></g></g></svg>