<svg id="Layer_1" data-name="Layer 1" xmlns="http://www.w3.org/2000/svg" viewBox="0 0 15.99 15.95"><defs><style>.cls-1{fill:#abb9c2;}</style></defs><path class="cls-1" d="M5.73,6.78a6.57,6.57,0,0,1-4.5,0,1.49,1.49,0,0,1-.94-1,8.38,8.38,0,0,1,0-4.39A1.5,1.5,0,0,1,1.4.25a9,9,0,0,1,4.15,0A1.49,1.49,0,0,1,6.68,1.45a11.91,11.91,0,0,1,0,4.21A1.48,1.48,0,0,1,5.73,6.78Z"/><path class="cls-1" d="M14.85,6.78a6.57,6.57,0,0,1-4.5,0,1.49,1.49,0,0,1-.94-1,8.6,8.6,0,0,1,0-4.39A1.53,1.53,0,0,1,10.52.25a9.09,9.09,0,0,1,4.15,0A1.5,1.5,0,0,1,15.8,1.44a11.91,11.91,0,0,1,0,4.21A1.48,1.48,0,0,1,14.85,6.78Z"/><path class="cls-1" d="M5.73,15.57a6.57,6.57,0,0,1-4.5,0,1.49,1.49,0,0,1-.94-1,8.38,8.38,0,0,1,0-4.39A1.5,1.5,0,0,1,1.4,9,9.09,9.09,0,0,1,5.55,9a1.51,1.51,0,0,1,1.13,1.21,12.15,12.15,0,0,1,0,4.21A1.49,1.49,0,0,1,5.73,15.57Z"/><path class="cls-1" d="M14.85,15.57a6.57,6.57,0,0,1-4.5,0,1.49,1.49,0,0,1-.94-1,8.6,8.6,0,0,1,0-4.39A1.53,1.53,0,0,1,10.52,9a9.09,9.09,0,0,1,4.15,0,1.5,1.5,0,0,1,1.13,1.21,11.91,11.91,0,0,1,0,4.21A1.48,1.48,0,0,1,14.85,15.57Z"/></svg>