<svg xmlns="http://www.w3.org/2000/svg" x="0px" y="0px"
width="32" height="32"
viewBox="0 0 172 172"
style=" fill:#000000;"><g fill="none" fill-rule="nonzero" stroke="none" stroke-width="1" stroke-linecap="butt" stroke-linejoin="miter" stroke-miterlimit="10" stroke-dasharray="" stroke-dashoffset="0" font-family="none" font-weight="none" font-size="none" text-anchor="none" style="mix-blend-mode: normal"><path d="M0,172v-172h172v172z" fill="none"></path><g fill="#ffffff"><path d="M86,13.89941l-25.30029,25.30029l7.60058,7.60059l12.32471,-12.32471v78.39941h10.75v-78.39941l12.32471,12.32471l7.60058,-7.60059zM48.375,59.125c-8.84171,0 -16.125,7.28329 -16.125,16.125v64.5c0,8.84171 7.28329,16.125 16.125,16.125h75.25c8.84171,0 16.125,-7.28329 16.125,-16.125v-64.5c0,-8.84171 -7.28329,-16.125 -16.125,-16.125h-16.125v10.75h16.125c3.03704,0 5.375,2.33796 5.375,5.375v64.5c0,3.03704 -2.33796,5.375 -5.375,5.375h-75.25c-3.03704,0 -5.375,-2.33796 -5.375,-5.375v-64.5c0,-3.03704 2.33796,-5.375 5.375,-5.375h16.125v-10.75z"></path></g></g></svg>