<svg xmlns="http://www.w3.org/2000/svg" width="14.48" height="15.284" viewBox="0 0 14.48 15.284"><defs><style>.a,.b{fill:#fff;}.a{fill-rule:evenodd;}</style></defs><g transform="translate(-4.5 -3)"><path class="a" d="M15.762,5.413v-.8A1.609,1.609,0,0,0,14.153,3H9.327A1.609,1.609,0,0,0,7.718,4.609v.8H5.3a.8.8,0,0,0,0,1.609h.8v8.849a2.413,2.413,0,0,0,2.413,2.413h6.436a2.413,2.413,0,0,0,2.413-2.413V7.022h.8a.8.8,0,0,0,0-1.609Zm-1.609-.8H9.327v.8h4.827Zm1.609,2.413H7.718v8.849a.8.8,0,0,0,.8.8h6.436a.8.8,0,0,0,.8-.8Z"/><path class="b" d="M13.5,13.5h1.609v6.436H13.5Z" transform="translate(-4.173 -4.869)"/><path class="b" d="M19.5,13.5h1.609v6.436H19.5Z" transform="translate(-6.956 -4.869)"/></g></svg>