<svg xmlns="http://www.w3.org/2000/svg" xmlns:xlink="http://www.w3.org/1999/xlink" width="24" height="24" viewBox="0 0 24 24"><defs><style>.a{fill:#adb5cb;}.b{clip-path:url(#a);}</style><clipPath id="a"><rect class="a" width="24" height="24" transform="translate(1116 2257)"/></clipPath></defs><g class="b" transform="translate(-1116 -2257)"><path class="a" d="M24.182,2.315a10.293,10.293,0,0,1-2.467,2.543q.015.213.015.64a13.975,13.975,0,0,1-.579,3.952,14.284,14.284,0,0,1-1.758,3.784,14.872,14.872,0,0,1-2.81,3.206,12.5,12.5,0,0,1-3.929,2.223,14.4,14.4,0,0,1-4.919.83A13.659,13.659,0,0,1,.182,17.284a10.522,10.522,0,0,0,1.188.061,9.628,9.628,0,0,0,6.106-2.1,4.926,4.926,0,0,1-4.6-3.412,6.255,6.255,0,0,0,.929.076A5.1,5.1,0,0,0,5.1,11.74a4.837,4.837,0,0,1-2.825-1.7A4.749,4.749,0,0,1,1.157,6.914V6.853a4.877,4.877,0,0,0,2.223.624,4.911,4.911,0,0,1-1.6-1.751,4.8,4.8,0,0,1-.594-2.345A4.817,4.817,0,0,1,1.858.9,13.931,13.931,0,0,0,6.342,4.53,13.711,13.711,0,0,0,12,6.045a5.463,5.463,0,0,1-.122-1.127,4.74,4.74,0,0,1,1.439-3.479,4.93,4.93,0,0,1,7.073.114A9.626,9.626,0,0,0,23.511.365a4.779,4.779,0,0,1-2.162,2.711,9.8,9.8,0,0,0,2.832-.761Z" transform="translate(1115.818 2259.254)"/></g></svg>