<svg xmlns="http://www.w3.org/2000/svg" xmlns:xlink="http://www.w3.org/1999/xlink" width="24" height="24" viewBox="0 0 24 24"><defs><style>.a{fill:#adb5cb;}.b{clip-path:url(#a);}</style><clipPath id="a"><rect class="a" width="24" height="24" transform="translate(1075 2257)"/></clipPath></defs><g class="b" transform="translate(-1075 -2257)"><g transform="translate(1073.286 2255.286)"><path class="a" d="M18.714,3.714a5.016,5.016,0,0,1,5,5v10a5.016,5.016,0,0,1-5,5h-10a5.016,5.016,0,0,1-5-5v-10a5.016,5.016,0,0,1,5-5h10m0-2h-10a7.02,7.02,0,0,0-7,7v10a7.02,7.02,0,0,0,7,7h10a7.02,7.02,0,0,0,7-7v-10a7.02,7.02,0,0,0-7-7Z"/><path class="a" d="M20.214,8.715a1.5,1.5,0,1,1,1.062-.438,1.5,1.5,0,0,1-1.062.438Z"/><path class="a" d="M13.714,9.714a4,4,0,1,1-4,4,4,4,0,0,1,4-4m0-2a6,6,0,1,0,6,6A6,6,0,0,0,13.714,7.714Z"/></g></g></svg>