<svg xmlns="http://www.w3.org/2000/svg" width="15.712" height="15.676" viewBox="0 0 15.712 15.676"><defs><style>.a{fill:#ffdc4e;}</style></defs><path class="a" d="M7.856.25a7.57,7.57,0,0,1,5.556,2.3,7.549,7.549,0,0,1,2.3,5.538,7.549,7.549,0,0,1-2.3,5.538,7.57,7.57,0,0,1-5.556,2.3,7.57,7.57,0,0,1-5.556-2.3A7.551,7.551,0,0,1,0,8.088,7.547,7.547,0,0,1,2.3,2.55,7.572,7.572,0,0,1,7.856.25Zm0,14.13a6.044,6.044,0,0,0,4.434-1.84,6.065,6.065,0,0,0,1.84-4.452,6.065,6.065,0,0,0-1.84-4.452A6.044,6.044,0,0,0,7.856,1.8a6.044,6.044,0,0,0-4.434,1.84,6.065,6.065,0,0,0-1.84,4.452,6.065,6.065,0,0,0,1.84,4.452A6.044,6.044,0,0,0,7.856,14.38ZM8.243,4.15V8.272l3.533,2.1-.589.994L7.066,8.86V4.15H8.243Z" transform="translate(0 -0.25)"/></svg>