<svg xmlns="http://www.w3.org/2000/svg" width="265" height="148" viewBox="0 0 265 148"><defs><style>.a{fill:#191919;stroke:#31353e;stroke-width:1.5px;}.b,.c,.d{fill:#fff;font-family:Montserrat-SemiBold, Montserrat;font-weight:600;}.b{font-size:20px;}.c{font-size:9px;}.d{font-size:12px;}.e{fill:#cacaca;}.f{stroke:none;}.g{fill:none;}</style></defs><g transform="translate(-273 -692)"><g class="a" transform="translate(273 692)"><rect class="f" width="265" height="148" rx="14"/><rect class="g" x="0.75" y="0.75" width="263.5" height="146.5" rx="13.25"/></g><text class="b" transform="translate(301 773)"><tspan x="0" y="0">****</tspan></text><text class="b" transform="translate(352 773)"><tspan x="0" y="0">****</tspan></text><text class="b" transform="translate(403 773)"><tspan x="0" y="0">****</tspan></text><text class="b" transform="translate(454 769)"><tspan x="0" y="0">5678</tspan></text><text class="c" transform="translate(301 796)"><tspan x="0" y="0">Expire</tspan></text><text class="d" transform="translate(301 813)"><tspan x="0" y="0">06/21</tspan></text><g transform="translate(476 717.453)"><path class="e" d="M174.381,185.256h3.474l2.172-13.524h-3.472Z" transform="translate(-161.164 -171.732)"/><path class="e" d="M23.99,171.733l-5.462,13.509H14.852l-2.681-10a3.648,3.648,0,0,0-1.956-2.349c-.071-.034-.144-.068-.216-.1q.154-.536.336-1.059h2.8a2.27,2.27,0,0,1,2.26,1.742l1.173,5.735c0-.012-.01-.024-.014-.036l.357,1.746,3.4-9.188v0Z" transform="translate(-10 -171.731)"/><path class="e" d="M374.479,172.251h-2.687a1.722,1.722,0,0,0-1.816,1.088l-5.159,12.394h3.645l1-2.683h4.079l.521,2.693h1.449a20.348,20.348,0,0,0,.945-3.952Zm-4,8.09c.072,0,1.4-4.38,1.4-4.38l1.058,4.38Z" transform="translate(-336.288 -172.209)"/><path class="e" d="M251.618,177.443c-1.214-.6-1.958-1-1.958-1.617.015-.557.629-1.129,2-1.129a6.046,6.046,0,0,1,2.587.5l.315.141.472-2.83a8.766,8.766,0,0,0-3.118-.557c-3.43,0-5.846,1.783-5.861,4.334-.028,1.882,1.729,2.927,3.045,3.553,1.344.643,1.8,1.059,1.8,1.631-.015.877-1.087,1.281-2.086,1.281a7.064,7.064,0,0,1-3.26-.7l-.457-.208-.486,2.94a10.849,10.849,0,0,0,3.874.7c3.645,0,6.018-1.756,6.047-4.475C254.547,179.519,253.621,178.377,251.618,177.443Z" transform="translate(-225.751 -171.934)"/></g></g></svg>