<svg xmlns="http://www.w3.org/2000/svg" xmlns:xlink="http://www.w3.org/1999/xlink" width="265" height="148" viewBox="0 0 265 148"><defs><style>.a{stroke:#ffd83b;stroke-width:1.5px;fill:url(#a);}.b{fill:#ee0005;}.c{fill:#f9a000;}.d{fill:#ff6300;}.e,.f,.g{fill:#fff;font-family:Montserrat-SemiBold, Montserrat;font-weight:600;}.e{font-size:20px;}.f{font-size:9px;}.g{font-size:12px;}.h{stroke:none;}.i{fill:none;}</style><linearGradient id="a" x1="0.01" y1="0.916" x2="0.97" y2="0.102" gradientUnits="objectBoundingBox"><stop offset="0" stop-color="#683bff"/><stop offset="1" stop-color="#7f15d0"/></linearGradient></defs><g transform="translate(-273 -692)"><g class="a" transform="translate(273 692)"><rect class="h" width="265" height="148" rx="14"/><rect class="i" x="0.75" y="0.75" width="263.5" height="146.5" rx="13.25"/></g><g transform="translate(476 711.358)"><ellipse class="b" cx="12.389" cy="12.389" rx="12.389" ry="12.389" transform="translate(0 0)"/><ellipse class="c" cx="12.389" cy="12.389" rx="12.389" ry="12.389" transform="translate(15.393 0)"/><path class="d" d="M206.012,117.349a12.366,12.366,0,0,0,4.693,9.708,12.389,12.389,0,0,0,0-19.417A12.367,12.367,0,0,0,206.012,117.349Z" transform="translate(-190.619 -104.961)"/></g><text class="e" transform="translate(301 773)"><tspan x="0" y="0">****</tspan></text><text class="e" transform="translate(352 773)"><tspan x="0" y="0">****</tspan></text><text class="e" transform="translate(403 773)"><tspan x="0" y="0">****</tspan></text><text class="e" transform="translate(454 769)"><tspan x="0" y="0">1234</tspan></text><text class="f" transform="translate(301 796)"><tspan x="0" y="0">Expire</tspan></text><text class="g" transform="translate(301 813)"><tspan x="0" y="0">12/24</tspan></text></g></svg>