<svg xmlns="http://www.w3.org/2000/svg" xmlns:xlink="http://www.w3.org/1999/xlink" width="24" height="24" viewBox="0 0 24 24"><defs><style>.a{fill:#adb5cb;}.b{clip-path:url(#a);}</style><clipPath id="a"><rect class="a" width="24" height="24" transform="translate(1157 2257)"/></clipPath></defs><g class="b" transform="translate(-1157 -2257)"><path class="a" d="M12.53.02C13.84,0,15.14.01,16.44,0a6.229,6.229,0,0,0,1.75,4.17,7.052,7.052,0,0,0,4.24,1.79V9.99a10.7,10.7,0,0,1-4.2-.97,12.355,12.355,0,0,1-1.62-.93c-.01,2.92.01,5.84-.02,8.75a7.638,7.638,0,0,1-1.35,3.94,7.45,7.45,0,0,1-5.91,3.21,7.292,7.292,0,0,1-4.08-1.03A7.541,7.541,0,0,1,1.6,17.25c-.02-.5-.03-1-.01-1.49a7.528,7.528,0,0,1,8.73-6.68c.02,1.48-.04,2.96-.04,4.44A3.431,3.431,0,0,0,5.9,15.64a3.967,3.967,0,0,0-.14,1.61,3.4,3.4,0,0,0,3.5,2.87,3.36,3.36,0,0,0,2.77-1.61,2.307,2.307,0,0,0,.41-1.06c.1-1.79.06-3.57.07-5.36.01-4.03-.01-8.05.02-12.07Z" transform="translate(1156.996 2257)"/></g></svg>