<svg id="Layer_1" data-name="Layer 1" xmlns="http://www.w3.org/2000/svg" xmlns:xlink="http://www.w3.org/1999/xlink" viewBox="0 0 318.43 214.23"><defs><style>.cls-1{fill:#fff;}.cls-2{fill:url(#Безымянный_градиент_13);}</style><radialGradient id="Безымянный_градиент_13" cx="300.92" cy="308.29" r="88.03" gradientTransform="translate(-18.53) scale(1.04 1)" gradientUnits="userSpaceOnUse"><stop offset="0.69" stop-color="#ffc902"/><stop offset="0.76" stop-color="#ffc402"/><stop offset="0.85" stop-color="#ffb603"/><stop offset="0.93" stop-color="#ff9f03"/><stop offset="1" stop-color="#ff8904"/></radialGradient></defs><path class="cls-1" d="M141.72,205.45a16.82,16.82,0,0,1-4.52-.62,34.14,34.14,0,0,1-4.09-1.4,21.69,21.69,0,0,1-3.83-2l-.81-.54-7,9.53.73.58a25,25,0,0,0,5,3,37.25,37.25,0,0,0,6.12,2.05A35.7,35.7,0,0,0,142,217a26,26,0,0,0,8.31-1.21,17.29,17.29,0,0,0,5.92-3.3,13.54,13.54,0,0,0,3.52-4.91,15.42,15.42,0,0,0,1.15-5.92,11,11,0,0,0-4.55-9.29c-2.87-2.14-7-3.92-12.39-5.29a32.23,32.23,0,0,1-5.78-1.88c-1.07-.52-1.2-1.16-1.2-1.66a1.83,1.83,0,0,1,.78-1.52c.33-.25,1.24-.68,3.72-.68a16.66,16.66,0,0,1,4.37.54,28.66,28.66,0,0,1,3.54,1.18,16,16,0,0,1,3.08,1.7l.85.6,6.86-10.08-.67-.56a16.29,16.29,0,0,0-4.28-2.47,35.67,35.67,0,0,0-5.58-1.64,39.08,39.08,0,0,0-8.17-.75,30,30,0,0,0-8.2,1,16.73,16.73,0,0,0-6,3,12.29,12.29,0,0,0-3.59,4.63,14.29,14.29,0,0,0-1.16,5.79,11.29,11.29,0,0,0,1.15,5.16,12.23,12.23,0,0,0,3.22,4,20.15,20.15,0,0,0,5,2.93,56.49,56.49,0,0,0,6.71,2.25,39.11,39.11,0,0,1,4.06,1.23,13.65,13.65,0,0,1,2.38,1.1,2.44,2.44,0,0,1,.91.85,2.24,2.24,0,0,1,.23,1.08,2.35,2.35,0,0,1-.9,1.81C145,205,144,205.45,141.72,205.45Z" transform="translate(-91.23 -142.93)"/><polygon class="cls-1" points="88.07 73.12 100.4 73.12 100.4 38.83 113.88 38.83 113.88 27.86 74.51 27.86 74.51 38.83 88.07 38.83 88.07 73.12"/><path class="cls-1" d="M216.68,211.11a19.32,19.32,0,0,0,6.61,4.33,22.93,22.93,0,0,0,8.59,1.55,23.4,23.4,0,0,0,8.7-1.55,18.48,18.48,0,0,0,6.59-4.34,19.27,19.27,0,0,0,4.1-6.58,22.62,22.62,0,0,0,1.44-8.14V170.79H240.3v25.59a11.07,11.07,0,0,1-.5,3.32,7.33,7.33,0,0,1-1.49,2.68,7.61,7.61,0,0,1-2.6,1.85,9.35,9.35,0,0,1-3.83.71,9.16,9.16,0,0,1-3.75-.71,8,8,0,0,1-2.64-1.86,7.4,7.4,0,0,1-1.57-2.69,10.36,10.36,0,0,1-.52-3.3V170.79H211v25.59a22.3,22.3,0,0,0,1.47,8.15A19.26,19.26,0,0,0,216.68,211.11Z" transform="translate(-91.23 -142.93)"/><path class="cls-1" d="M299.45,184.48a21,21,0,0,0-4.35-7.23,19.65,19.65,0,0,0-6.93-4.77,23.86,23.86,0,0,0-9.19-1.69H261.6v45.26H279a23.86,23.86,0,0,0,9.19-1.69,19.63,19.63,0,0,0,6.93-4.76,21.25,21.25,0,0,0,4.35-7.19,27.89,27.89,0,0,0,0-17.93ZM273,181.76h5.27a13.22,13.22,0,0,1,4.49.74,9.31,9.31,0,0,1,3.41,2.17,10.39,10.39,0,0,1,2.24,3.63,14.62,14.62,0,0,1,.83,5.12,14.44,14.44,0,0,1-.83,5.15,10.29,10.29,0,0,1-2.24,3.6,9,9,0,0,1-3.41,2.17,13,13,0,0,1-4.49.75H273Z" transform="translate(-91.23 -142.93)"/><rect class="cls-1" x="218.74" y="27.86" width="12.41" height="45.26"/><path class="cls-1" d="M337.92,210.05a22.4,22.4,0,0,0,7.59,5.1,26.12,26.12,0,0,0,10,1.84,26.75,26.75,0,0,0,10.12-1.84,22.31,22.31,0,0,0,7.66-5.1,22.63,22.63,0,0,0,4.79-7.5,25.95,25.95,0,0,0,0-18.21,21.86,21.86,0,0,0-12.45-12.65,26.75,26.75,0,0,0-10.12-1.84,25.93,25.93,0,0,0-10,1.85,22.28,22.28,0,0,0-7.59,5.09,22.64,22.64,0,0,0-4.79,7.55,25.95,25.95,0,0,0,0,18.21A22.63,22.63,0,0,0,337.92,210.05Zm17.63-28.15a12.11,12.11,0,0,1,4.52.84,11.15,11.15,0,0,1,3.65,2.32,10.36,10.36,0,0,1,2.41,3.6,13.46,13.46,0,0,1,0,9.52,10.29,10.29,0,0,1-2.4,3.6,11.33,11.33,0,0,1-3.66,2.33,12.23,12.23,0,0,1-4.52.83,11.93,11.93,0,0,1-4.47-.83,10.84,10.84,0,0,1-3.58-2.32,10.52,10.52,0,0,1-2.38-3.61,13.46,13.46,0,0,1,0-9.52,10.38,10.38,0,0,1,2.38-3.6,10.84,10.84,0,0,1,3.58-2.32A11.74,11.74,0,0,1,355.55,181.9Z" transform="translate(-91.23 -142.93)"/><path class="cls-1" d="M162.66,252a25.88,25.88,0,0,0-1.54-9,22.23,22.23,0,0,0-4.48-7.45,20.79,20.79,0,0,0-7.15-5,23.8,23.8,0,0,0-9.45-1.81,23.18,23.18,0,0,0-9.38,1.82,20.86,20.86,0,0,0-7.08,5A22.33,22.33,0,0,0,119.1,243a27,27,0,0,0,0,18,22.42,22.42,0,0,0,4.48,7.41,20.75,20.75,0,0,0,7.08,5,23.35,23.35,0,0,0,9.38,1.82,23.8,23.8,0,0,0,9.45-1.82,20.65,20.65,0,0,0,7.15-5,22.32,22.32,0,0,0,4.48-7.41A26.05,26.05,0,0,0,162.66,252ZM140,263.32a10.66,10.66,0,0,1-4.17-.82,10.05,10.05,0,0,1-3.34-2.29,10.5,10.5,0,0,1-2.22-3.55,14,14,0,0,1,0-9.38,10.5,10.5,0,0,1,2.22-3.55,10.17,10.17,0,0,1,3.34-2.28,10.48,10.48,0,0,1,4.17-.82,10.71,10.71,0,0,1,4.21.82,10.12,10.12,0,0,1,5.66,5.83,14,14,0,0,1,0,9.38,10.21,10.21,0,0,1-2.25,3.55,10.55,10.55,0,0,1-3.41,2.29A10.86,10.86,0,0,1,140,263.32Z" transform="translate(-91.23 -142.93)"/><polygon class="cls-1" points="114.13 86.78 102.96 86.78 102.96 108.27 78.87 86.71 75.51 86.71 75.51 131.37 86.68 131.37 86.68 108.94 110.76 131.37 114.13 131.37 114.13 86.78"/><path class="cls-1" d="M154.83,308.91c-2.74-2.07-6.73-3.8-11.85-5.13a31.8,31.8,0,0,1-5.52-1.81c-1-.51-1.13-1.11-1.13-1.58a1.75,1.75,0,0,1,.73-1.45c.31-.25,1.18-.66,3.54-.66a16,16,0,0,1,4.17.52,28.67,28.67,0,0,1,3.38,1.15,15.44,15.44,0,0,1,2.94,1.64l.83.6,6.59-9.81-.66-.56a15.84,15.84,0,0,0-4.1-2.4,34.22,34.22,0,0,0-5.34-1.58,36.51,36.51,0,0,0-7.81-.73,28,28,0,0,0-7.85,1A16,16,0,0,0,127,291a11.9,11.9,0,0,0-3.43,4.49,14,14,0,0,0-1.11,5.62,11.19,11.19,0,0,0,1.09,5,11.78,11.78,0,0,0,3.09,3.84,19.08,19.08,0,0,0,4.83,2.85,54.43,54.43,0,0,0,6.42,2.18,35.61,35.61,0,0,1,3.87,1.19,13.14,13.14,0,0,1,2.28,1.06,2.22,2.22,0,0,1,.85.81,2.15,2.15,0,0,1,.22,1,2.23,2.23,0,0,1-.85,1.73c-.41.36-1.34.79-3.49.79a16.06,16.06,0,0,1-4.31-.59,30.91,30.91,0,0,1-3.9-1.36,20.2,20.2,0,0,1-3.66-1.93l-.8-.54-6.7,9.28.71.57a23.51,23.51,0,0,0,4.82,2.92,34.44,34.44,0,0,0,5.85,2,33.81,33.81,0,0,0,8.27.9,24.45,24.45,0,0,0,8-1.17,16.36,16.36,0,0,0,5.67-3.21,13,13,0,0,0,3.37-4.76,15,15,0,0,0,1.1-5.74A10.76,10.76,0,0,0,154.83,308.91Z" transform="translate(-91.23 -142.93)"/><path class="cls-1" d="M193.63,312.83a10.91,10.91,0,0,1-.46,3.2,6.93,6.93,0,0,1-1.39,2.58,6.79,6.79,0,0,1-2.41,1.79,8.42,8.42,0,0,1-3.55.68,8.32,8.32,0,0,1-3.49-.68,7.36,7.36,0,0,1-2.45-1.8,7,7,0,0,1-1.45-2.58,10.28,10.28,0,0,1-.49-3.19V288H166.31v24.81a22.24,22.24,0,0,0,1.38,7.9,18.54,18.54,0,0,0,3.94,6.37,18,18,0,0,0,6.17,4.21,20.69,20.69,0,0,0,8,1.5,21.13,21.13,0,0,0,8.12-1.5,17.32,17.32,0,0,0,6.15-4.21,18.9,18.9,0,0,0,3.83-6.38,22.89,22.89,0,0,0,1.34-7.89V288H193.63Z" transform="translate(-91.23 -142.93)"/><polygon class="cls-1" points="149.66 166.24 124.48 145.09 120.94 145.09 120.94 188.97 132.66 188.97 132.66 166.97 157.82 188.97 161.37 188.97 161.37 145.16 149.66 145.16 149.66 166.24"/><path class="cls-1" d="M291.6,308.91c-2.75-2.07-6.74-3.8-11.87-5.13a31.8,31.8,0,0,1-5.52-1.81c-1-.51-1.13-1.11-1.13-1.58a1.75,1.75,0,0,1,.73-1.45c.31-.25,1.18-.66,3.54-.66a16.11,16.11,0,0,1,4.18.52,28.67,28.67,0,0,1,3.38,1.15,15.23,15.23,0,0,1,2.95,1.64l.83.6,6.6-9.81-.66-.56a16,16,0,0,0-4.1-2.4,34.71,34.71,0,0,0-5.35-1.58,36.71,36.71,0,0,0-7.83-.73,28,28,0,0,0-7.85,1,16,16,0,0,0-5.72,2.87,11.83,11.83,0,0,0-3.44,4.49,14,14,0,0,0-1.11,5.62,11.19,11.19,0,0,0,1.09,5,11.82,11.82,0,0,0,3.1,3.84,19.08,19.08,0,0,0,4.83,2.85,54.62,54.62,0,0,0,6.43,2.18,36.59,36.59,0,0,1,3.88,1.19,13,13,0,0,1,2.27,1.06,2.2,2.2,0,0,1,.86.81,2.15,2.15,0,0,1,.22,1,2.23,2.23,0,0,1-.85,1.73c-.41.36-1.34.79-3.5.79a16.06,16.06,0,0,1-4.31-.59,31.09,31.09,0,0,1-3.91-1.36,20.2,20.2,0,0,1-3.66-1.93l-.8-.54-6.72,9.28.72.57a23.6,23.6,0,0,0,4.83,2.92,34.44,34.44,0,0,0,5.85,2,33.93,33.93,0,0,0,8.29.9,24.56,24.56,0,0,0,8-1.17,16.36,16.36,0,0,0,5.67-3.21,13,13,0,0,0,3.38-4.76,15,15,0,0,0,1.1-5.74A10.74,10.74,0,0,0,291.6,308.91Z" transform="translate(-91.23 -142.93)"/><polygon class="cls-1" points="209.85 188.97 243.78 188.97 243.78 178.29 221.46 178.29 221.46 171.99 239.21 171.99 239.21 162.08 221.46 162.08 221.46 155.77 243.78 155.77 243.78 145.09 209.85 145.09 209.85 188.97"/><polygon class="cls-1" points="248.82 145.09 248.82 155.77 262.04 155.77 262.04 188.97 274.11 188.97 274.11 155.77 287.25 155.77 287.25 145.09 248.82 145.09"/><path class="cls-1" d="M409.66,357.16H91.23V142.93H409.66Zm-307.26-11H398.5V153.93H102.4Z" transform="translate(-91.23 -142.93)"/><path class="cls-2" d="M230.85,274.64a80.31,80.31,0,0,1,129.81,0H378c-15.75-28.1-46.71-47.25-82.24-47.25s-66.49,19.15-82.25,47.25Z" transform="translate(-91.23 -142.93)"/></svg>